<?xml version="1.0" encoding="iso-8859-1"?>
<!-- Generator: Adobe Illustrator 19.0.0, SVG Export Plug-In . SVG Version: 6.00 Build 0)  -->
<svg version="1.1" id="Layer_1" xmlns="http://www.w3.org/2000/svg" xmlns:xlink="http://www.w3.org/1999/xlink" x="0px" y="0px"
	 viewBox="0 0 511.999 511.999" style="enable-background:new 0 0 511.999 511.999;" xml:space="preserve">
<g>
	<path style="fill:#BDEA9C;" d="M448.204,22.394L439.155,0l-20.743,12.375c-47.09,28.093-75.681,63.048-84.984,103.893
		c-12.837,56.373,16.927,102.173,18.199,104.095l8.892,13.424l15.199-5.321c2.176-0.762,53.567-19.265,77.407-71.937
		C470.4,118.366,468.744,73.238,448.204,22.394z"/>
	<path style="fill:#BDEA9C;" d="M313.192,216.458c-15.028-39.231-48.377-69.921-99.123-91.219l-22.351-9.382l-5.759,23.546
		c-12.989,53.106-8.166,97.953,14.337,133.292c31.141,48.908,84.738,60.094,87.005,60.545l15.846,3.162l6.911-14.609
		C311.04,319.719,333.845,270.374,313.192,216.458z"/>
	<path style="fill:#BDEA9C;" d="M493.981,329.429c-35.698-41.745-75.076-64.138-117.036-66.558
		c-57.769-3.366-97.987,33.343-99.672,34.906l-11.884,11.03l7.867,14.178c1.117,2.013,28.005,49.489,84.014,64.316
		c11.067,2.93,22.408,4.393,34.005,4.393c30.938,0,63.677-10.412,97.735-31.137l20.777-12.643L493.981,329.429z"/>
	<path style="fill:#BDEA9C;" d="M183.291,306.595c-15.634-38.995-49.454-69.169-100.519-89.683l-22.498-9.038l-5.393,23.637
		c-12.163,53.302-6.644,98.07,16.402,133.059c31.894,48.422,85.656,58.778,87.928,59.196l15.896,2.917l6.683-14.715
		C182.741,409.878,204.778,360.186,183.291,306.595z"/>
	<path style="fill:#BDEA9C;" d="M353.419,474.542c-22.884-49.825-54.599-82.087-94.269-95.887
		c-54.707-19.035-103.535,5.267-105.585,6.312l-14.454,7.353l3.685,15.793c0.521,2.238,13.36,55.156,63.117,84.711
		c21.513,12.778,46.218,19.176,73.864,19.176c18.786,0,38.936-2.958,60.349-8.875l23.444-6.479L353.419,474.542z"/>
</g>
<g>
	<path style="fill:#A2DBB1;" d="M360.52,233.787l15.199-5.321c2.176-0.762,53.567-19.265,77.407-71.937
		c17.273-38.163,15.616-83.291-4.923-134.135L439.155,0"/>
	<path style="fill:#A2DBB1;" d="M191.718,115.857l-5.759,23.546c-12.989,53.106-8.166,97.953,14.337,133.292
		c31.141,48.908,84.738,60.094,87.005,60.545l15.846,3.162"/>
	<path style="fill:#A2DBB1;" d="M265.388,308.808l7.867,14.178c1.118,2.013,28.005,49.489,84.014,64.316
		c11.067,2.93,22.408,4.393,34.005,4.393c30.938,0,63.677-10.412,97.735-31.137l20.777-12.643"/>
	<path style="fill:#A2DBB1;" d="M60.275,207.874l-5.393,23.637c-12.163,53.302-6.644,98.07,16.402,133.059
		c31.894,48.422,85.656,58.778,87.928,59.196l15.896,2.917"/>
	<path style="fill:#A2DBB1;" d="M139.111,392.32l3.685,15.793c0.521,2.238,13.36,55.156,63.117,84.711
		c21.513,12.778,46.218,19.176,73.864,19.176c18.786,0,38.936-2.958,60.349-8.875l23.444-6.479"/>
</g>
<path style="fill:#6DA544;" d="M366.923,154.774c-14.285,42.471-35.51,81.647-63.089,116.436
	c-26.653,33.626-58.628,62.427-95.033,85.602c-61.774,39.326-133.896,60.358-206.589,60.771v41.382
	c80.522-0.421,160.413-23.691,228.816-67.238c40.307-25.66,75.716-57.557,105.241-94.807
	c30.556-38.548,54.068-81.935,69.883-128.952L366.923,154.774z"/>
<g>
</g>
<g>
</g>
<g>
</g>
<g>
</g>
<g>
</g>
<g>
</g>
<g>
</g>
<g>
</g>
<g>
</g>
<g>
</g>
<g>
</g>
<g>
</g>
<g>
</g>
<g>
</g>
<g>
</g>
</svg>
